<svg width="13" height="13" viewBox="0 0 13 13" fill="none" xmlns="http://www.w3.org/2000/svg">
<circle cx="6.5" cy="6.25015" r="6" fill="#36B864"/>
<path d="M5.39164 8.28214L5.39226 8.28145L3.72478 6.41238C3.66848 6.34715 3.6373 6.25974 3.63795 6.16898C3.6386 6.07823 3.67102 5.99139 3.72823 5.92717C3.78544 5.86295 3.86287 5.82649 3.94383 5.82564C4.0248 5.82478 4.10282 5.85961 4.1611 5.92261L5.82858 7.79203L9.10394 4.12138C9.13243 4.08833 9.1665 4.06196 9.20418 4.04382C9.24185 4.02568 9.28237 4.01613 9.32337 4.01573C9.36437 4.01533 9.40504 4.02409 9.44298 4.04149C9.48093 4.05889 9.51541 4.0846 9.5444 4.11709C9.5734 4.14959 9.59633 4.18824 9.61185 4.23078C9.62738 4.27331 9.63519 4.31889 9.63484 4.36485C9.63448 4.41081 9.62596 4.45623 9.60978 4.49845C9.5936 4.54068 9.57007 4.57888 9.54058 4.6108L6.04659 8.52685C5.98868 8.59174 5.91015 8.62819 5.82827 8.62819C5.74639 8.62819 5.66786 8.59174 5.60996 8.52685L5.39164 8.28214Z" fill="white"/>
</svg>
