<svg width="15" height="18" viewBox="0 0 15 18" fill="none" xmlns="http://www.w3.org/2000/svg">
<path d="M7.5 8.55C6.86064 8.55 6.24746 8.31295 5.79537 7.89099C5.34327 7.46903 5.08929 6.89674 5.08929 6.3C5.08929 5.70326 5.34327 5.13097 5.79537 4.70901C6.24746 4.28705 6.86064 4.05 7.5 4.05C8.13936 4.05 8.75254 4.28705 9.20463 4.70901C9.65673 5.13097 9.91071 5.70326 9.91071 6.3C9.91071 6.59547 9.84836 6.88806 9.72721 7.16104C9.60606 7.43402 9.42849 7.68206 9.20463 7.89099C8.98078 8.09992 8.71502 8.26566 8.42254 8.37873C8.13006 8.4918 7.81658 8.55 7.5 8.55ZM7.5 0C5.70979 0 3.9929 0.663748 2.72703 1.84523C1.46116 3.02671 0.75 4.62914 0.75 6.3C0.75 11.025 7.5 18 7.5 18C7.5 18 14.25 11.025 14.25 6.3C14.25 4.62914 13.5388 3.02671 12.273 1.84523C11.0071 0.663748 9.29021 0 7.5 0Z" fill="white"/>
</svg>
