<svg width="25" height="18" viewBox="0 0 25 18" fill="none" xmlns="http://www.w3.org/2000/svg">
<path d="M23 0H2C1.60218 0 1.22064 0.158035 0.93934 0.43934C0.658035 0.720644 0.5 1.10218 0.5 1.5V16.5C0.5 16.8978 0.658035 17.2794 0.93934 17.5607C1.22064 17.842 1.60218 18 2 18H23C23.3978 18 23.7794 17.842 24.0607 17.5607C24.342 17.2794 24.5 16.8978 24.5 16.5V1.5C24.5 1.10218 24.342 0.720644 24.0607 0.43934C23.7794 0.158035 23.3978 0 23 0ZM21.845 16.5H3.245L8.495 11.07L7.415 10.0275L2 15.63V2.64L11.3225 11.9175C11.6035 12.1969 11.9837 12.3537 12.38 12.3537C12.7763 12.3537 13.1565 12.1969 13.4375 11.9175L23 2.4075V15.5325L17.48 10.0125L16.4225 11.07L21.845 16.5ZM2.9825 1.5H21.785L12.38 10.8525L2.9825 1.5Z" fill="white"/>
</svg>
