<svg width="19" height="18" viewBox="0 0 19 18" fill="none" xmlns="http://www.w3.org/2000/svg">
<path fill-rule="evenodd" clip-rule="evenodd" d="M11.1973 0.0340148C11.0105 0.102363 10.8544 0.235335 10.7572 0.408848C10.7022 0.510511 10.6704 0.623095 10.6641 0.738513C10.6578 0.85393 10.6771 0.969316 10.7207 1.07638C10.7642 1.18344 10.831 1.27952 10.9161 1.35772C11.0012 1.43591 11.1026 1.49428 11.213 1.52863C11.2735 1.54671 11.4008 1.57107 11.4959 1.58207C12.0727 1.64886 12.8286 1.88068 13.429 2.17536C14.697 2.78881 15.7167 3.81794 16.3184 5.09152C16.61 5.69974 16.7789 6.24745 16.8858 6.93818C16.9416 7.29809 17.0013 7.44189 17.1585 7.59277C17.3031 7.73107 17.4634 7.79079 17.6881 7.79079C17.9129 7.79079 18.0732 7.73107 18.2178 7.59277C18.4551 7.36488 18.5054 7.13935 18.4276 6.64115C18.1777 4.98029 17.4012 3.44353 16.2124 2.25708C15.0242 1.06893 13.5257 0.310622 11.8417 0.0434446C11.499 -0.0115624 11.3309 -0.0139198 11.1973 0.0340148ZM2.36473 0.832403C1.90251 0.932437 1.48055 1.16785 1.15264 1.50864C0.824732 1.84942 0.605735 2.28013 0.523568 2.74586C0.405696 3.42323 0.742025 5.28247 1.26302 6.8321C2.32073 9.98007 4.33163 12.7839 6.93346 14.7374C8.29293 15.7579 9.79668 16.5704 11.3953 17.1483C12.8004 17.6481 14.6792 18.0386 15.4721 17.997C16.3318 17.9514 17.0705 17.4563 17.4516 16.6705C17.6732 16.2124 17.6724 16.2202 17.6724 14.4545C17.6724 12.6715 17.6748 12.6958 17.4343 12.2047C17.2986 11.9288 17.1098 11.6825 16.8787 11.4798C16.6475 11.2771 16.3786 11.1221 16.0874 11.0236C15.8751 10.9654 15.6597 10.919 15.4423 10.8845C14.8293 10.7816 14.4623 10.6889 13.8062 10.472C13.3009 10.3046 13.2514 10.2944 12.8891 10.281C12.4342 10.2638 12.1552 10.3148 11.8134 10.4791C11.4755 10.6409 11.3277 10.7517 10.9254 11.147L10.5584 11.5069L10.2339 11.2853C9.02608 10.4499 7.9813 9.4006 7.15113 8.1892L6.9641 7.91102L7.32244 7.54483C7.72006 7.13699 7.834 6.98533 7.99274 6.64979C8.15147 6.31582 8.20412 6.02821 8.18762 5.57479C8.17505 5.21803 8.16483 5.16853 7.99745 4.66325C7.78057 4.00709 7.68784 3.64012 7.5849 3.02718C7.55043 2.80974 7.504 2.59436 7.44581 2.38203C7.34747 2.09074 7.19249 1.82178 6.98979 1.59063C6.78709 1.35947 6.54068 1.17069 6.26473 1.03514C5.78303 0.799398 5.81367 0.802542 4.10924 0.793112C2.83779 0.786039 2.54861 0.792326 2.36473 0.832403ZM5.57086 2.43625C5.86082 2.59341 5.94412 2.75372 6.04549 3.35251C6.14371 3.93558 6.30166 4.56502 6.4824 5.09938C6.63878 5.55829 6.66078 5.77675 6.57356 5.98735C6.54055 6.06671 6.30638 6.32761 5.90011 6.73859C5.30761 7.33895 5.27539 7.37745 5.22353 7.55583C5.12608 7.88902 5.21803 8.12005 5.7846 8.96951C6.74769 10.414 7.98295 11.657 9.42135 12.6291C10.347 13.253 10.5718 13.3457 10.9136 13.2459C11.092 13.1941 11.1305 13.1626 11.7332 12.5662C12.1206 12.1827 12.4098 11.9226 12.4797 11.8935C12.6841 11.8079 12.9143 11.8322 13.3701 11.987C13.9036 12.1678 14.5339 12.3257 15.1161 12.424C15.7165 12.5253 15.8815 12.6133 16.0418 12.9143C16.0961 13.0157 16.1016 13.128 16.1102 14.3838C16.1157 15.2765 16.1078 15.7857 16.0858 15.8674C16.0033 16.1723 15.6662 16.4348 15.3574 16.4348C15.1617 16.4348 14.603 16.357 14.0891 16.2579C10.2496 15.5177 6.76608 13.2365 4.61373 10.0539C3.57803 8.52081 2.89987 7.04584 2.46139 5.36891C2.26258 4.60746 2.06769 3.49867 2.06691 3.12069C2.06612 2.92031 2.19264 2.66021 2.35294 2.53291C2.57769 2.35453 2.58869 2.35374 4.07781 2.3616C5.41212 2.36867 5.44827 2.37024 5.57086 2.43625ZM11.1973 3.17727C11.0413 3.23005 10.906 3.33071 10.8106 3.46489C10.7153 3.59908 10.6647 3.75995 10.6661 3.92458C10.6661 4.09118 10.6826 4.16033 10.7572 4.29706C10.8775 4.51787 11.048 4.63182 11.3772 4.71354C12.5764 5.01058 13.4337 5.85769 13.7441 7.05055C13.8416 7.42775 13.9461 7.58805 14.1724 7.71221C14.2774 7.76927 14.394 7.80152 14.5134 7.80647C14.6328 7.81141 14.7517 7.78893 14.8611 7.74075C14.9704 7.69256 15.0673 7.61996 15.1442 7.52851C15.2211 7.43706 15.276 7.3292 15.3047 7.21322C15.4077 6.82896 15.0572 5.83018 14.5653 5.10331C14.317 4.73633 13.7331 4.15247 13.3661 3.90415C12.5929 3.3808 11.5792 3.04133 11.1973 3.17727Z" fill="white"/>
</svg>
