<svg width="44" height="36" viewBox="0 0 44 36" fill="none" xmlns="http://www.w3.org/2000/svg">
<path d="M23.6162 33.4921C26.4212 31.594 28.344 29.5603 29.3846 27.3911C30.4251 25.2671 30.9454 23.2334 30.9454 21.2901C30.9454 19.2113 30.3799 17.3584 29.2488 15.7315C28.0725 14.1498 26.7832 12.7714 25.3807 11.5964C24.7473 10.9185 24.4306 10.1728 24.4306 9.35938C24.4306 8.41034 24.7473 7.43871 25.3807 6.44448C26.014 5.45025 26.851 4.5238 27.8916 3.66515C28.9321 2.80649 30.1537 2.10602 31.5562 1.56371C32.9134 1.0214 34.3385 0.750247 35.8315 0.750247C37.2793 0.750247 38.5008 1.11179 39.4961 1.83486C40.4462 2.55794 41.2153 3.43919 41.8034 4.47861C42.3916 5.51804 42.8214 6.60265 43.0928 7.73246C43.3643 8.90746 43.5 9.94688 43.5 10.8507C43.5 13.4719 43.025 15.9801 42.0749 18.3752C41.1248 20.8156 39.8354 23.0978 38.2067 25.2219C36.578 27.3459 34.6778 29.2892 32.5062 31.0517C30.3346 32.8594 28.0499 34.4637 25.6521 35.8647L23.6162 33.4921ZM-3.60728e-06 33.6276C2.75975 31.7296 4.68252 29.6959 5.76833 27.5267C6.80889 25.4026 7.32917 23.369 7.32917 21.4257C7.32917 19.3469 6.76365 17.494 5.6326 15.8671C4.45632 14.2853 3.16693 12.907 1.76443 11.732C1.13104 11.0541 0.814349 10.3084 0.814349 9.49496C0.814349 8.54592 1.13104 7.57428 1.76443 6.58005C2.39781 5.58582 3.23479 4.65938 4.27535 3.80072C5.31591 2.94207 6.53744 2.24159 7.93994 1.69928C9.29719 1.15698 10.7223 0.885819 12.2153 0.88582C13.663 0.88582 14.8619 1.24736 15.812 1.97044C16.7621 2.69351 17.5538 3.57477 18.1872 4.61419C18.7754 5.65361 19.2051 6.73823 19.4766 7.86803C19.7028 9.04303 19.8159 10.0825 19.8159 10.9863C19.8159 13.6075 19.3409 16.1156 18.3908 18.5108C17.4407 20.9512 16.1513 23.2334 14.5226 25.3575C12.8939 27.4815 11.0164 29.4248 8.89001 31.1873C6.7184 32.995 4.43369 34.5993 2.03588 36.0002L-3.60728e-06 33.6276Z" fill="#ECEAEA"/>
</svg>
